# xmcd
#
# Track frame offsets:
#	150
#	20360
#	37538
#	54813
#	76083
#	95945
#	110905
#	129570
#	150105
#	166795
#	185193
#	200230
#	218270
#	233245
#	249460
#	267275
#	282720
#	297475
#
# Disc length: 4214 seconds
#
# Revision: 1
# Processed by: cddbd v1.5.2PL0 Copyright (c) Steve Scherf et al.
# Submitted via: audiograbber 1.80
#
DISCID=fa107412
DTITLE=Shania Twain - Up!
DYEAR=1900
DGENRE=
TTITLE0=I'm Gonna Getcha Good !
TTITLE1=She's Not Just A Pretty Face
TTITLE2=Juanita
TTITLE3=Forever And For Always
TTITLE4=Ain't No Paticular Way
TTITLE5=It Only Hurts When I'm Breathing
TTITLE6=Nah !
TTITLE7=(Wanna Get To Know You) That Good !
TTITLE8=C'est La Vie
TTITLE9=I'm Jealous
TTITLE10=Ka-Ching!
TTITLE11=Thank You Baby!
TTITLE12=Waiter! Bring Me Some Water!
TTITLE13=What A Way To Wanna Be!
TTITLE14=I Ain't Goin' Down
TTITLE15=I'm Not In The Mood (To Say No)
TTITLE16=In My Car (I'll Be The Driver)
TTITLE17=When You Kiss Me
EXTD=
EXTT0=
EXTT1=
EXTT2=
EXTT3=
EXTT4=
EXTT5=
EXTT6=
EXTT7=
EXTT8=
EXTT9=
EXTT10=
EXTT11=
EXTT12=
EXTT13=
EXTT14=
EXTT15=
EXTT16=
EXTT17=
PLAYORDER=
